<svg width="32" height="32" viewBox="0 0 32 32" fill="none" xmlns="http://www.w3.org/2000/svg">
<path d="M28.4993 13.1C28.4993 13.1 26.9993 14.5 24.4493 16.15C23.7493 12.1 21.7992 7.1 17.9992 1C17.9992 1 16.7492 7.55 12.5992 13.7C10.7992 10.9 9.99925 8.7 9.99925 8.7C-3.00075 21.75 7.79925 31 14.5992 31C23.2992 31 30.9493 26.8 28.4993 13.1Z" fill="#FF9D33"/>
<path d="M23.166 22.55C23.916 20.9 24.466 18.75 24.566 16.05C24.566 16.05 23.516 16.95 21.716 18.1C21.216 15.4 19.866 12.1 17.216 8C17.216 8 16.366 12.35 13.466 16.5C12.216 14.65 11.666 13.15 11.666 13.15C9.51602 16.55 8.66602 19.25 8.61602 21.4C7.41602 20.95 6.66602 20.6 6.66602 20.6C8.71602 26.7 12.966 28.05 14.866 28.05C18.266 28.05 21.716 27.05 25.116 22.2C25.116 22.15 24.366 22.35 23.166 22.55Z" fill="#FFCE31"/>
<path d="M10.9501 21.95C10.9501 21.95 12.3501 23.85 13.4001 23.4C13.4001 23.4 15.4001 20.25 18.3001 18.5C18.3001 18.5 17.7001 23.3 18.4001 24.15C19.3001 25.3 21.7501 22.9 21.7501 22.9C21.7501 25.75 18.6501 29.3 15.8501 29.3C13.1501 29.3 9.25005 26.2 10.9501 21.95Z" fill="#FFDF85"/>
<path d="M24.8986 9.0502C25.9486 7.5502 26.6486 5.9502 26.6486 5.9502C28.3986 8.8502 27.3486 10.6002 26.5986 11.1502C25.5486 11.9502 23.6986 10.8002 24.8986 9.0502Z" fill="#FF9D33"/>
<path d="M5.79899 8.5501C4.74899 6.8001 4.64899 4.6001 4.64899 4.6001C2.14899 8.3501 3.09899 10.4501 3.94899 11.0501C5.04899 11.9001 6.94899 10.6001 5.79899 8.5501Z" fill="#FF9D33"/>
<path d="M11.6 4.65C11.75 3.45 11.25 2.25 11.25 2.25C13.6 3.8 13.6 5.1 13.3 5.65C12.85 6.3 11.45 6 11.6 4.65Z" fill="#FF9D33"/>
<path d="M18.157 15.8052H13.8423C11.1141 15.8052 8.90234 18.0169 8.90234 20.7452V25.0598C8.90234 27.7881 11.1141 29.9998 13.8423 29.9998H18.157C20.8853 29.9998 23.097 27.7881 23.097 25.0598V20.7452C23.097 18.0169 20.8853 15.8052 18.157 15.8052Z" fill="#E7253E"/>
<path d="M15.0914 28.3663C11.5154 28.3663 10.8574 27.721 9.19336 26.735C9.53826 27.6912 10.1696 28.5177 11.0014 29.1019C11.8332 29.6861 12.8249 29.9996 13.8414 29.9997H18.156C19.4662 29.9997 20.7227 29.4792 21.6491 28.5528C22.5756 27.6264 23.096 26.3698 23.096 25.0597V24.1523C22.2187 25.4662 21.0269 26.54 19.6289 27.2759C18.2309 28.0119 16.6711 28.3867 15.0914 28.3663Z" fill="#B51F36"/>
<path d="M12.4744 16C12.069 15.5898 11.5201 15.3533 10.9435 15.3404C10.367 15.3275 9.808 15.5393 9.38473 15.931C8.96146 16.3226 8.70705 16.8635 8.67526 17.4393C8.64347 18.0152 8.83679 18.5808 9.21436 19.0167C9.48522 18.2947 9.92102 17.6459 10.487 17.1222C11.053 16.5984 11.7336 16.2142 12.4744 16Z" fill="#90192D"/>
<path d="M19.5254 16C19.9307 15.5898 20.4797 15.3533 21.0562 15.3404C21.6328 15.3275 22.1918 15.5393 22.615 15.931C23.0383 16.3226 23.2927 16.8635 23.3245 17.4393C23.3563 18.0152 23.163 18.5808 22.7854 19.0167C22.5145 18.2947 22.0787 17.6459 21.5127 17.1222C20.9467 16.5984 20.2662 16.2142 19.5254 16Z" fill="#90192D"/>
<path d="M16.655 21.9033H15.347C15.2752 21.9033 15.2051 21.9247 15.1455 21.9648C15.086 22.0049 15.0398 22.0619 15.0128 22.1284C14.9858 22.1949 14.9793 22.2679 14.994 22.3382C15.0088 22.4084 15.0442 22.4726 15.0957 22.5227L15.7497 23.1587C15.8168 23.2244 15.907 23.2612 16.001 23.2612C16.0949 23.2612 16.1852 23.2244 16.2523 23.1587L16.9063 22.5227C16.9578 22.4726 16.9932 22.4084 17.0079 22.3382C17.0227 22.2679 17.0162 22.1949 16.9892 22.1284C16.9622 22.0619 16.916 22.0049 16.8564 21.9648C16.7969 21.9247 16.7268 21.9033 16.655 21.9033Z" fill="#90192D"/>
<path d="M17.0904 25.1514C17.0675 25.1519 17.0449 25.1568 17.0239 25.166C17.0029 25.1752 16.9839 25.1884 16.9681 25.205C16.9522 25.2215 16.9398 25.241 16.9315 25.2624C16.9232 25.2837 16.9192 25.3065 16.9197 25.3294C16.9172 25.5945 16.823 25.8506 16.653 26.0541C16.5665 26.1362 16.4639 26.1995 16.3517 26.2401C16.2395 26.2807 16.1201 26.2977 16.001 26.2901C15.8831 26.2969 15.765 26.2795 15.6539 26.2392C15.5428 26.1988 15.4412 26.1363 15.355 26.0554C15.1817 25.8527 15.0854 25.5954 15.083 25.3288C15.0813 25.2842 15.0626 25.2421 15.0307 25.2109C14.9989 25.1797 14.9564 25.1619 14.9119 25.161C14.8673 25.1602 14.8241 25.1764 14.7911 25.2063C14.7581 25.2363 14.7378 25.2777 14.7344 25.3221C14.735 25.6816 14.8666 26.0285 15.1044 26.2981C15.2224 26.4135 15.3629 26.5033 15.5172 26.5619C15.6715 26.6205 15.8362 26.6467 16.001 26.6388C16.1659 26.6465 16.3305 26.6202 16.4848 26.5616C16.639 26.503 16.7796 26.4133 16.8977 26.2981C17.1352 26.0283 17.2667 25.6815 17.2677 25.3221C17.2665 25.2761 17.2472 25.2323 17.214 25.2004C17.1808 25.1685 17.1364 25.1509 17.0904 25.1514Z" fill="#90192D"/>
<path d="M21.8964 20.2558C21.7149 19.6423 21.3957 19.0784 20.9631 18.6071C20.859 18.4864 20.7162 18.4055 20.5592 18.3783C20.4021 18.3511 20.2404 18.3792 20.1018 18.4578C19.2544 18.9339 18.3463 19.2928 17.4024 19.5245C17.2376 19.5652 17.0936 19.6654 16.9981 19.8058C16.9026 19.9462 16.8624 20.1169 16.8851 20.2851C16.9344 20.7153 17.04 21.1371 17.1991 21.5398C17.439 22.165 17.8902 22.6865 18.4744 23.0138C18.8303 23.1898 19.2245 23.2741 19.6212 23.2588C20.0179 23.2436 20.4045 23.1293 20.7458 22.9265C21.0832 22.7173 21.3673 22.4324 21.5755 22.0944C21.7838 21.7564 21.9106 21.3746 21.9458 20.9791C21.9688 20.737 21.9521 20.4926 21.8964 20.2558Z" fill="#90192D"/>
<path d="M14.5993 19.5279C13.6553 19.2962 12.7473 18.9374 11.8999 18.4612C11.7613 18.3826 11.5996 18.3545 11.4425 18.3817C11.2854 18.4089 11.1427 18.4898 11.0386 18.6106C10.606 19.0819 10.2867 19.6458 10.1053 20.2592C10.0491 20.496 10.032 20.7403 10.0546 20.9826C10.0898 21.378 10.2165 21.7598 10.4248 22.0978C10.6331 22.4358 10.9172 22.7207 11.2546 22.9299C11.5959 23.1327 11.9824 23.247 12.3792 23.2622C12.7759 23.2775 13.1701 23.1933 13.5259 23.0172C14.11 22.6887 14.5605 22.166 14.7993 21.5399C14.9592 21.1384 15.0659 20.7177 15.1166 20.2886C15.1393 20.1203 15.099 19.9496 15.0036 19.8092C14.9081 19.6688 14.7641 19.5686 14.5993 19.5279Z" fill="#90192D"/>
<path opacity="0.9" d="M7.42276 26.9027C7.26016 26.5736 7.14092 26.1446 7.11924 25.606C7.11924 25.606 7.34688 25.7855 7.73713 26.015C7.84553 25.4763 8.13821 24.818 8.71274 24C8.71274 24 8.89702 24.8678 9.52575 25.6958C9.79675 25.3267 9.91599 25.0274 9.91599 25.0274C10.3821 25.7057 10.5664 26.2444 10.5772 26.6733C10.8374 26.5835 11 26.5137 11 26.5137C10.5556 27.7307 9.63415 28 9.22222 28C8.48509 28 7.73713 27.8005 7 26.8329C7 26.8229 7.1626 26.8628 7.42276 26.9027Z" fill="#FFCE31"/>
<path d="M20.5772 28.9027C20.7398 28.5736 20.8591 28.1446 20.8808 27.606C20.8808 27.606 20.6531 27.7855 20.2629 28.015C20.1545 27.4763 19.8618 26.818 19.2873 26C19.2873 26 19.103 26.8678 18.4743 27.6958C18.2033 27.3267 18.084 27.0274 18.084 27.0274C17.6179 27.7057 17.4336 28.2444 17.4228 28.6733C17.1626 28.5835 17 28.5137 17 28.5137C17.4444 29.7307 18.3659 30 18.7778 30C19.5149 30 20.2629 29.8005 21 28.8329C21 28.8229 20.8374 28.8628 20.5772 28.9027Z" fill="#FFCE31" fill-opacity="0.8"/>
</svg>
