<svg width="16" height="16" viewBox="0 0 16 16" fill="none" xmlns="http://www.w3.org/2000/svg">
<path d="M7.9993 1.27979C6.21704 1.27979 4.50778 1.98778 3.24754 3.24803C1.9873 4.50827 1.2793 6.21753 1.2793 7.99979C1.2793 9.78204 1.9873 11.4913 3.24754 12.7515C4.50778 14.0118 6.21704 14.7198 7.9993 14.7198C9.78155 14.7198 11.4908 14.0118 12.7511 12.7515C14.0113 11.4913 14.7193 9.78204 14.7193 7.99979C14.7193 6.21753 14.0113 4.50827 12.7511 3.24803C11.4908 1.98778 9.78155 1.27979 7.9993 1.27979ZM11.8305 10.4486L10.4473 11.8318L7.9993 9.38299L5.5505 11.831L4.1673 10.4478L6.6169 7.99979L4.1681 5.55099L5.5513 4.16859L7.9993 6.61659L10.4481 4.16779L11.8313 5.55099L9.3817 7.99979L11.8305 10.4486Z" fill="#808191"/>
</svg>
