<svg width="17" height="14" viewBox="0 0 17 14" fill="none" xmlns="http://www.w3.org/2000/svg">
<path d="M17 12.9999C16.9995 13.1717 16.9547 13.3405 16.87 13.4899C16.7832 13.6444 16.6569 13.773 16.504 13.8626C16.3511 13.9522 16.1772 13.9996 16 13.9999L1.33 13.9999C0.730317 14.0134 0.149464 13.7901 -0.286676 13.3783C-0.722817 12.9665 -0.979106 12.3994 -1 11.7999L-1 2.19991C-0.979106 1.60044 -0.722817 1.03335 -0.286677 0.621542C0.149463 0.209736 0.730316 -0.01361 1.33 -9.16546e-05L16 -9.22958e-05C16.1745 0.000961507 16.3457 0.0476667 16.4966 0.135383C16.6475 0.223099 16.7727 0.348769 16.86 0.499908C16.9478 0.651927 16.994 0.824371 16.994 0.999908C16.994 1.17544 16.9478 1.34789 16.86 1.49991L13.65 7.16991L16.85 12.4999C16.9434 12.6504 16.9951 12.8229 17 12.9999Z" fill="#FF1111"/>
</svg>
